<?xml version="1.0" encoding="UTF-8"?>
<svg id="Layer_1" data-name="Layer 1" xmlns="http://www.w3.org/2000/svg" viewBox="0 0 426.83 480.04">
  <defs>
    <style>
      .cls-1 {
        fill: #318e43;
      }

      .cls-2 {
        fill: #fff;
      }

      .cls-3 {
        fill: #e72f26;
      }

      .cls-4 {
        fill: #319044;
      }
    </style>
  </defs>
  <path class="cls-1" d="m140.79,288.76c-1.28-1.66-1.15-4.29.23-5.86.77-.88,1.67-1.64,2.45-2.52.55-.63.99-1.36,1.36-2.12-1.51,1.13-3.11,2.17-4.52,3.42-2.37,2.12-2.76,4.84-1.93,7.79.27.94.67,1.85.95,2.59-3.63-2.12-5.48-5.94-2.8-9.27,1.54-1.91,3.41-3.54,5.09-5.34,1.03-1.1,2.06-2.21,2.93-3.42.86-1.19.72-2.51-.09-3.73-1.47-2.24-3.02-4.43-4.41-6.72-.73-1.2-1.28-2.53-1.77-3.85-.4-1.08-.19-2.17.68-2.99,1.38-1.3,1.51-2.81.87-4.49-.6-1.58-1.31-3.15-1.22-4.9.02-.45.07-.9.17-1.36.22,2.62,1.52,4.8,2.75,7.01.27.48.49,1,.7,1.51.38.92.2,1.74-.5,2.47-1.03,1.07-1.18,2.29-.68,3.67.8,2.21,2.38,3.87,3.89,5.57,1.64,1.84,3.25,3.68,4.1,6.09.96,2.72.52,5.12-1.36,7.23-1.15,1.28-2.42,2.46-3.66,3.65-1.58,1.52-3,3.12-3.23,5.56Z"/>
  <path class="cls-4" d="m212.36,277.8c-.09-1.61,0-3.08-.27-4.49-.52-2.77-2.2-4.64-4.92-5.49-1.52-.47-3.06-.87-4.71-1.2.57.41,1.1.89,1.71,1.22.98.52,2.02.92,3.02,1.41,2.1,1.02,3.28,3.45,2.61,5.55-1.65-3.21-4.93-3.84-7.74-5.21-1.1-.54-2.23-1.1-3.2-1.84-2.39-1.81-2.89-4.42-2.37-7.16.38-2.04,1.24-3.99,1.83-5.99.52-1.74,1.07-3.47,1.42-5.25.37-1.87-.3-3.04-1.98-3.96-.93-.51-1.31-1.31-1.22-2.31.15-1.66.44-3.3.57-4.96.09-1.18.02-2.38.11-3.63.25,1.02.59,2.04.71,3.08.15,1.25.11,2.53.17,3.79.06,1.2.71,2.12,1.73,2.56,2.15.94,2.57,2.68,2.26,4.66-.36,2.34-.95,4.65-1.44,6.97-.24,1.15-.47,2.3-.73,3.44-.36,1.56.21,2.8,1.48,3.6,1.32.84,2.76,1.48,4.17,2.19,2.12,1.06,4.35,1.93,6.34,3.19,2.47,1.56,3.06,3.92,1.99,6.64-.42,1.08-1,2.09-1.54,3.2Z"/>
  <path class="cls-4" d="m140.45,292.24c.89,0,1.8-.12,2.67.03,1.32.22,2.36-.25,3.3-1.06.87-.74,1.69-1.53,2.55-2.28.27-.24.6-.4.9-.6-.23,1.57-.6,3.1-.65,4.65-.05,1.55.2,3.11.32,4.73-1.04-.06-2-.59-2.91-1.21-1.63-1.11-3.23-2.26-4.86-3.37-.4-.27-.88-.44-1.32-.65,0-.08,0-.16,0-.24Z"/>
  <path class="cls-2" d="m199.07,288.92c-1.07.35-2.14.72-3.23,1.04-7.19,2.09-14.52,2.89-21.97,2.28-6.42-.52-12.83-1.24-19.24-1.91-.42-.04-1.02-.38-1.14-.72-.13-.35.12-.96.4-1.3.58-.74,1.45-.89,2.35-.76,4.49.63,8.97,1.27,13.46,1.88,6.99.96,14,1.51,21.04.65,2.66-.32,5.28-.89,7.93-1.35.12-.02.24-.02.35-.03.02.08.04.15.06.23Z"/>
  <path class="cls-3" d="m211.54,279.55c-.57.65-1.08,1.36-1.72,1.93-4.7,4.19-10.36,6.24-16.47,7.21-6.76,1.08-13.56.91-20.31.07-5.75-.71-11.46-1.74-17.19-2.65-1.78-.28-3,.15-3.83,1.83-.63,1.28-1.13,2.69-1.36,4.09-.44,2.72-.3,5.43,1.11,7.92.73,1.3,1.82,2.08,3.33,2.2,6.42.52,12.83.51,19.25-.01,1.02-.08,2.03-.25,3.29-.41,0,0,13.4-.32,21.42-6.11.16-.04.32-.09.45-.16,3.59-1.89,6.79-4.27,9.18-7.62,1.74-2.43,2.8-5.11,3.16-8.07-.11-.07-.22-.14-.32-.21Zm-56.91,10.77c-.42-.04-1.02-.38-1.14-.72-.13-.35.12-.96.39-1.3.58-.74,1.45-.89,2.35-.76,4.49.63,8.97,1.27,13.46,1.89,6.99.96,14,1.51,21.04.65,2.66-.32,5.28-.89,7.93-1.35.11-.02.24-.02.35-.03.02.08.04.15.06.23-1.08.35-2.14.72-3.23,1.04-7.18,2.09-14.52,2.89-21.97,2.28-6.42-.52-12.83-1.24-19.24-1.91Z"/>
  <g>
    <path class="cls-3" d="m154.22,306.31c12.07,9.01,27.63,10.03,40.35,1.74,1.75-1.11,3.42-2.37,5-3.77-2.56,3.41-5.99,6.13-9.77,8.12-11.62,6.15-26.7,3.66-35.58-6.09h0Z"/>
    <path class="cls-3" d="m184.96,313.96s2.16,4.61,4.57,7.61c1.11,1.39,2.86,2.14,4.62,1.9,1.33-.18,2.52-.88,2.17-2.89-.05-.28-.1-.56-.13-.84-.18-1.43-1.03-6.16-4.7-8.92l-6.53,3.14Z"/>
    <path class="cls-2" d="m188.4,313.53s1.76-.21,3.2,5.61"/>
  </g>
</svg>